<?xml version="1.0" encoding="utf-8"?>
<svg width="800px" height="800px" viewBox="0 0 1024 1024" class="icon"  version="1.1" xmlns="http://www.w3.org/2000/svg"><path d="M510.5 958.5c247.2 0 447.5-200.4 447.5-447.5S757.7 63.5 510.5 63.5 63 263.8 63 511s200.4 447.5 447.5 447.5z" fill="#000000" /><path d="M510.5 902.6c-216.3 0-391.6-175.3-391.6-391.6S294.2 119.4 510.5 119.4s391.6 175.3 391.6 391.6-175.3 391.6-391.6 391.6z" fill="#FFFFFF" /><path d="M405.8 558.9h-2c-31 0-43-21.4-27-47.8L524 269.2c33.5-55.1 44.2-50.2 24 11l-45.1 136.1c-9.7 29.4 7.5 52.9 38.4 52.9H628l-0.4 0.4h2c31 0 43 21.4 27 47.8L515.7 749c-36.9 60.7-48.8 55.3-26.4-12.3l41.3-124.5c9.7-29.4-7.5-52.9-38.4-52.9h-86.7l0.3-0.4z" fill="#000000" /></svg>